<svg id="Layer_1" data-name="Layer 1" xmlns="http://www.w3.org/2000/svg" viewBox="0 0 189.44 26.86" width="190" height="25"><defs><style>.cls-1{fill:none;stroke:#000;stroke-miterlimit:10;stroke-width:4px;}</style></defs><polygon points="36.61 18.14 32.61 18.14 32.61 6.11 20.58 6.11 20.58 2.1 36.61 2.1 36.61 18.14"/><polygon points="16.02 25.52 0.16 25.52 0.16 21.52 14.37 21.52 33.2 2.69 36.03 5.52 16.02 25.52"/><path d="M39.87,25.53V21.64h3.07V2.11h9a9,9,0,0,1,3.73.72,5.83,5.83,0,0,1,2.48,2A5.53,5.53,0,0,1,59,8v.33A5.15,5.15,0,0,1,58.4,11,4.84,4.84,0,0,1,57,12.56a6.37,6.37,0,0,1-1.56.79V14A6.17,6.17,0,0,1,57,14.7a4.77,4.77,0,0,1,1.49,1.59A5.28,5.28,0,0,1,59.14,19v.34a5.93,5.93,0,0,1-.91,3.33,5.81,5.81,0,0,1-2.49,2.12,8.73,8.73,0,0,1-3.7.74Zm7.49-13.79h4.08A3.51,3.51,0,0,0,53.7,11a2.35,2.35,0,0,0,.89-1.94V8.76a2.35,2.35,0,0,0-.87-1.95,3.56,3.56,0,0,0-2.28-.69H47.36Zm0,9.77h4.15a3.6,3.6,0,0,0,2.32-.7,2.42,2.42,0,0,0,.89-2v-.33a2.44,2.44,0,0,0-.87-2,3.61,3.61,0,0,0-2.34-.7H47.36Z"/><path d="M68.19,25.79a6.4,6.4,0,0,1-3.4-.88,6,6,0,0,1-2.26-2.46,7.91,7.91,0,0,1-.8-3.62V8.93h4.21V18.5a3.86,3.86,0,0,0,.92,2.81,3.55,3.55,0,0,0,2.63.94,3.69,3.69,0,0,0,3-1.29,5.5,5.5,0,0,0,1.07-3.6V8.93h4.22v16.6H73.64V23.35H73A4.63,4.63,0,0,1,71.53,25,5.66,5.66,0,0,1,68.19,25.79Z"/><path d="M88.34,26A9.29,9.29,0,0,1,83,24.59a5.8,5.8,0,0,1-2.51-4l3.88-1a4.17,4.17,0,0,0,.79,1.84,3,3,0,0,0,1.37.95,5.42,5.42,0,0,0,1.79.29,3.67,3.67,0,0,0,2.18-.52,1.58,1.58,0,0,0,.7-1.29,1.33,1.33,0,0,0-.67-1.19A6.7,6.7,0,0,0,88.41,19l-.94-.17a16.71,16.71,0,0,1-3.18-.92A5.69,5.69,0,0,1,82,16.26a4,4,0,0,1-.87-2.68,4.44,4.44,0,0,1,1.8-3.8,7.88,7.88,0,0,1,4.75-1.32A8.16,8.16,0,0,1,92.29,9.7,5.71,5.71,0,0,1,94.7,13l-3.92,1.2a2.69,2.69,0,0,0-1.08-1.81,3.69,3.69,0,0,0-2-.53,3.36,3.36,0,0,0-1.84.42,1.31,1.31,0,0,0-.63,1.15,1.27,1.27,0,0,0,.67,1.19,5.36,5.36,0,0,0,1.8.58l.94.17a20.85,20.85,0,0,1,3.39.89,5.66,5.66,0,0,1,2.41,1.57,4.07,4.07,0,0,1,.89,2.76,4.75,4.75,0,0,1-1.89,4A8.22,8.22,0,0,1,88.34,26Z"/><path d="M98,25.53V8.93h4.21v16.6Z"/><path d="M105.9,25.53V8.93h4.15v2.18h.6a4.36,4.36,0,0,1,1.51-1.66,5.79,5.79,0,0,1,3.34-.79,6.41,6.41,0,0,1,3.4.89A6.12,6.12,0,0,1,121.16,12a7.89,7.89,0,0,1,.8,3.63v9.91h-4.22V16a3.82,3.82,0,0,0-.92-2.81,3.47,3.47,0,0,0-2.62-.94,3.68,3.68,0,0,0-3,1.29,5.43,5.43,0,0,0-1.07,3.59v8.44Z"/><path d="M133.12,26a8.86,8.86,0,0,1-4.37-1,7.34,7.34,0,0,1-2.94-3,9.3,9.3,0,0,1-1-4.53V17a9.48,9.48,0,0,1,1-4.54,7.3,7.3,0,0,1,2.91-3,8.65,8.65,0,0,1,4.35-1.06,8.12,8.12,0,0,1,4.25,1.09,7.48,7.48,0,0,1,2.81,3,9.51,9.51,0,0,1,1,4.47v1.44H129a3.74,3.74,0,0,0,1.27,2.77,4.23,4.23,0,0,0,2.94,1.07,3.7,3.7,0,0,0,2.61-.77,5.37,5.37,0,0,0,1.27-1.7l3.45,1.8a10.56,10.56,0,0,1-1.35,1.89,7.18,7.18,0,0,1-2.36,1.74A8.56,8.56,0,0,1,133.12,26Zm-4.05-10.67h7.76A3.31,3.31,0,0,0,135.68,13a4.58,4.58,0,0,0-5.37,0A3.76,3.76,0,0,0,129.07,15.32Z"/><path d="M150.79,26a9.29,9.29,0,0,1-5.32-1.4,5.76,5.76,0,0,1-2.5-4l3.88-1a4.05,4.05,0,0,0,.78,1.84,3,3,0,0,0,1.37.95,5.46,5.46,0,0,0,1.79.29,3.67,3.67,0,0,0,2.18-.52,1.56,1.56,0,0,0,.7-1.29,1.33,1.33,0,0,0-.67-1.19,6.61,6.61,0,0,0-2.14-.68l-.94-.17a16.4,16.4,0,0,1-3.17-.92,5.8,5.8,0,0,1-2.31-1.62,4,4,0,0,1-.87-2.68,4.44,4.44,0,0,1,1.8-3.8,7.88,7.88,0,0,1,4.75-1.32,8.13,8.13,0,0,1,4.62,1.24A5.71,5.71,0,0,1,157.15,13l-3.91,1.2a2.7,2.7,0,0,0-1.09-1.81,3.69,3.69,0,0,0-2-.53,3.36,3.36,0,0,0-1.84.42,1.31,1.31,0,0,0-.63,1.15,1.27,1.27,0,0,0,.67,1.19,5.43,5.43,0,0,0,1.8.58l.94.17a21.26,21.26,0,0,1,3.4.89,5.78,5.78,0,0,1,2.41,1.57,4.07,4.07,0,0,1,.88,2.76,4.75,4.75,0,0,1-1.89,4A8.22,8.22,0,0,1,150.79,26Z"/><path d="M167.68,26a9.25,9.25,0,0,1-5.32-1.4,5.8,5.8,0,0,1-2.51-4l3.88-1a4.17,4.17,0,0,0,.79,1.84,2.94,2.94,0,0,0,1.37.95,5.38,5.38,0,0,0,1.79.29,3.63,3.63,0,0,0,2.17-.52,1.57,1.57,0,0,0,.71-1.29,1.35,1.35,0,0,0-.67-1.19,6.69,6.69,0,0,0-2.15-.68l-.93-.17a16.71,16.71,0,0,1-3.18-.92,5.8,5.8,0,0,1-2.31-1.62,4,4,0,0,1-.87-2.68,4.42,4.42,0,0,1,1.81-3.8A7.86,7.86,0,0,1,167,8.46a8.16,8.16,0,0,1,4.62,1.24A5.7,5.7,0,0,1,174,13l-3.91,1.2A2.7,2.7,0,0,0,169,12.34a3.66,3.66,0,0,0-2-.53,3.34,3.34,0,0,0-1.84.42,1.32,1.32,0,0,0-.64,1.15,1.29,1.29,0,0,0,.67,1.19,5.5,5.5,0,0,0,1.81.58l.94.17a21.13,21.13,0,0,1,3.39.89,5.66,5.66,0,0,1,2.41,1.57,4.07,4.07,0,0,1,.89,2.76,4.75,4.75,0,0,1-1.89,4A8.22,8.22,0,0,1,167.68,26Z"/><line class="cls-1" x1="98.01" y1="4.11" x2="102.22" y2="4.11"/><path d="M176.18,8.93V7.83h1.08V2h-1.08V.86h4.09a3.13,3.13,0,0,1,1.27.25,2,2,0,0,1,.84.7,1.88,1.88,0,0,1,.31,1.08V3a1.78,1.78,0,0,1-.21.91,1.58,1.58,0,0,1-.5.55,2.44,2.44,0,0,1-.56.28v.18a2.08,2.08,0,0,1,.57.27,1.65,1.65,0,0,1,.52.56,1.84,1.84,0,0,1,.21.94v.11A2,2,0,0,1,182.41,8a1.93,1.93,0,0,1-.86.73,2.92,2.92,0,0,1-1.26.25Zm2.34-4.63h1.62a1.44,1.44,0,0,0,1-.3,1,1,0,0,0,.36-.8V3.09a1,1,0,0,0-.36-.8,1.41,1.41,0,0,0-1-.3h-1.62Zm0,3.5h1.62a1.47,1.47,0,0,0,1-.3,1,1,0,0,0,.36-.83v-.1a1.05,1.05,0,0,0-.35-.83,1.48,1.48,0,0,0-1-.3h-1.62Z"/><path d="M186.58,9.09a3.07,3.07,0,0,1-1.51-.36,2.57,2.57,0,0,1-1-1,3.14,3.14,0,0,1-.36-1.53V6a3.2,3.2,0,0,1,.36-1.55,2.54,2.54,0,0,1,1-1,3,3,0,0,1,1.48-.36,2.79,2.79,0,0,1,1.43.36,2.53,2.53,0,0,1,1,1A3.15,3.15,0,0,1,189.28,6v.45h-4.37a1.62,1.62,0,0,0,.5,1.19,1.69,1.69,0,0,0,1.2.45,1.46,1.46,0,0,0,1-.3,2,2,0,0,0,.53-.7l1,.51a3.21,3.21,0,0,1-.47.68,2.37,2.37,0,0,1-.8.6A2.91,2.91,0,0,1,186.58,9.09Zm-1.66-3.58h3.15a1.4,1.4,0,0,0-.46-1,1.82,1.82,0,0,0-2.17,0A1.57,1.57,0,0,0,184.92,5.51Z"/></svg>
